<?xml version="1.0" encoding="iso-8859-1"?>
<!-- Generator: Adobe Illustrator 19.0.0, SVG Export Plug-In . SVG Version: 6.00 Build 0)  -->
<svg version="1.1" id="Capa_1" xmlns="http://www.w3.org/2000/svg" xmlns:xlink="http://www.w3.org/1999/xlink" x="0px" y="0px"
	 viewBox="0 0 480.653 480.653" style="enable-background:new 0 0 480.653 480.653;" xml:space="preserve">
<g>
	<g>
		<polygon style="fill:#00EFD1;" points="381.561,75.755 297.447,167.184 381.561,258.612 128.173,258.612 119.292,258.612 
			119.292,75.755 128.173,75.755 		"/>
		<circle style="fill:#00ACEA;" cx="119.292" cy="31.347" r="20.898"/>
	</g>
	<path style="fill:#083863;" d="M311.553,167.184l77.845-84.114c2.704-2.546,3.537-6.506,2.09-9.927
		c-1.913-3.623-5.857-5.699-9.927-5.224H130.263v-7.314c11.943-4.911,19.911-16.352,20.376-29.257
		C150.639,14.035,136.604,0,119.292,0c-17.024-0.002-30.826,13.796-30.829,30.82c0,0.176,0.001,0.351,0.004,0.527
		c0.684,12.986,8.835,24.398,20.898,29.257v409.6c0,5.771,4.678,10.449,10.449,10.449c5.771,0,10.449-4.678,10.449-10.449V271.673
		h251.298c4.324-0.625,8.049-3.37,9.927-7.314c1.43-4.097,0.639-8.642-2.09-12.016L311.553,167.184z M119.292,20.898
		c5.771,0,10.449,4.678,10.449,10.449s-4.678,10.449-10.449,10.449c-5.771,0-10.449-4.678-10.449-10.449
		S113.521,20.898,119.292,20.898z M130.263,250.776V88.816h227.788l-67.918,72.62c-3.725,4.165-3.725,10.464,0,14.629l67.918,74.71
		H130.263z"/>
</g>
<g>
</g>
<g>
</g>
<g>
</g>
<g>
</g>
<g>
</g>
<g>
</g>
<g>
</g>
<g>
</g>
<g>
</g>
<g>
</g>
<g>
</g>
<g>
</g>
<g>
</g>
<g>
</g>
<g>
</g>
</svg>
